<?xml version="1.0" encoding="UTF-8"?><!DOCTYPE svg PUBLIC "-//W3C//DTD SVG 1.0//EN" "http://www.w3.org/TR/2001/REC-SVG-20010904/DTD/svg10.dtd" []><svg xmlns="http://www.w3.org/2000/svg" xmlns:xlink="http://www.w3.org/1999/xlink" height="500.0" preserveAspectRatio="xMidYMid meet" version="1.0" viewBox="0.0 0.0 730.4 500.0" width="730.4" zoomAndPan="magnify"><g id="change1_1"><path d="M718.825,407.418h-27.678c-5.61-159.244-126.153-289.669-281.064-310.714c8.951-10.265,14.417-23.642,14.417-38.298 C424.5,26.201,398.299,0,366.089,0c-32.206,0-58.407,26.201-58.407,58.407c0,14.657,5.468,28.035,14.419,38.3 c-47.82,6.475-93.573,23.389-134.216,50.044c-61.408,40.274-107.857,100.691-130.79,170.121 c-9.651,29.211-15.046,59.618-16.129,90.546H13.357c-6.398,0-11.581,5.187-11.581,11.581c0,6.394,5.184,11.581,11.581,11.581 h705.468c6.394,0,11.581-5.187,11.581-11.581C730.406,412.606,725.218,407.418,718.825,407.418z M330.844,58.407 c0-19.434,15.811-35.245,35.245-35.245c19.438,0,35.249,15.811,35.249,35.245s-15.811,35.241-35.249,35.241 C346.655,93.648,330.844,77.841,330.844,58.407z M79.089,324.141c21.3-64.484,64.447-120.603,121.501-158.02 c49.182-32.259,106.413-49.31,165.499-49.31c162.746,0,295.778,129.335,301.895,290.608H64.129 C65.2,378.965,70.21,351.003,79.089,324.141z"/></g><g id="change2_1"><path d="M718.825,500H11.581C5.184,500,0,494.813,0,488.419s5.184-11.581,11.581-11.581h707.244 c6.394,0,11.581,5.187,11.581,11.581S725.218,500,718.825,500z M174.781,306.882c22.729-48.142,62.234-86.037,111.246-106.7 c5.892-2.488,8.656-9.278,6.171-15.174c-2.488-5.892-9.278-8.644-15.174-6.171c-54.272,22.887-98.022,64.85-123.189,118.16 c-2.729,5.783-0.256,12.682,5.53,15.419c1.595,0.754,3.276,1.108,4.935,1.108C168.643,313.525,172.805,311.067,174.781,306.882z" fill="#F7941D"/></g></svg>