<?xml version="1.0" encoding="UTF-8"?><!DOCTYPE svg PUBLIC "-//W3C//DTD SVG 1.0//EN" "http://www.w3.org/TR/2001/REC-SVG-20010904/DTD/svg10.dtd" []><svg xmlns="http://www.w3.org/2000/svg" xmlns:xlink="http://www.w3.org/1999/xlink" data-name="Layer 3" height="112.9" preserveAspectRatio="xMidYMid meet" version="1.0" viewBox="40.7 45.3 117.9 112.9" width="117.9" zoomAndPan="magnify"><g id="change1_1"><path d="M146.71,117.92H142V93.53a11.93,11.93,0,0,0-11.92-11.92h-2.36V57.23A11.93,11.93,0,0,0,115.8,45.31H83.55A11.92,11.92,0,0,0,71.63,57.23V81.61H69.26A11.94,11.94,0,0,0,57.34,93.53v24.39h-4.7a11.94,11.94,0,0,0-11.92,11.92v28.39H158.63V129.84A11.94,11.94,0,0,0,146.71,117.92ZM83.55,49.31H115.8a7.93,7.93,0,0,1,7.88,7.17c-2,2.13-4,3.18-5.69,3.13a5.6,5.6,0,0,1-3.1-1.37,8.69,8.69,0,0,0-5.55-2.05A8.11,8.11,0,0,0,104,58.55a4.23,4.23,0,0,1-2.8,1.4c-1.16,0-1.85-.5-3-1.49a8.52,8.52,0,0,0-11.54-.7,7.54,7.54,0,0,1-3.66,1.51c-2.2.2-4.64-.8-7.25-2.93A7.93,7.93,0,0,1,83.55,49.31ZM75.63,61.19a12.53,12.53,0,0,0,7.65,2.06,11.41,11.41,0,0,0,5.48-2.13c1.25-.81,2.08-1.35,3.46-1.27a5.26,5.26,0,0,1,3.34,1.67A8,8,0,0,0,101.08,64h.15a7.94,7.94,0,0,0,5.3-2.32c1.1-.92,1.72-1.4,2.9-1.43s1.94.46,3.16,1.32a9.3,9.3,0,0,0,5.25,2.09,9.75,9.75,0,0,0,5.88-1.89v19.9H75.63ZM69.26,85.61h60.82a7.94,7.94,0,0,1,7.7,6.08A17.18,17.18,0,0,1,128,95a13.26,13.26,0,0,1-5.68-1.55,16.42,16.42,0,0,0-7.6-1.87,14.31,14.31,0,0,0-7.34,2.14,10.08,10.08,0,0,1-11.1-.09,16.11,16.11,0,0,0-7.89-2.39,17.59,17.59,0,0,0-8,1.74,17.72,17.72,0,0,1-6.41,1.68,23.74,23.74,0,0,1-12.3-3.09A7.94,7.94,0,0,1,69.26,85.61ZM61.34,95.86a26.57,26.57,0,0,0,12.79,2.76,21.52,21.52,0,0,0,7.73-2,13.7,13.7,0,0,1,6.36-1.44,12.28,12.28,0,0,1,6.12,1.91,14.34,14.34,0,0,0,7.52,2.19h.19a14.12,14.12,0,0,0,7.21-2.1,10.49,10.49,0,0,1,5.48-1.66,12.37,12.37,0,0,1,5.89,1.51A17.19,17.19,0,0,0,127.88,99,20,20,0,0,0,138,96.24v21.68H61.34Zm-8.7,26.06h94.07a7.94,7.94,0,0,1,7.37,5,33.38,33.38,0,0,1-14.56,3.37,27.06,27.06,0,0,1-8.6-1.63,29.32,29.32,0,0,0-10.21-1.78,25.18,25.18,0,0,0-9.79,2,20.54,20.54,0,0,1-8.2,1.73,21,21,0,0,1-8.83-1.82,28.56,28.56,0,0,0-10.61-2.27,32.14,32.14,0,0,0-10.82,1.66A35.71,35.71,0,0,1,62.9,130a46.88,46.88,0,0,1-17.64-3A7.93,7.93,0,0,1,52.64,121.92Zm-7.92,32.31V131a50.48,50.48,0,0,0,18.34,3,39.47,39.47,0,0,0,10.52-1.91,27.6,27.6,0,0,1,9.6-1.5,24.44,24.44,0,0,1,9.28,2,25.08,25.08,0,0,0,10,2.08h.26a24.49,24.49,0,0,0,9.6-2,21.07,21.07,0,0,1,8.4-1.76,24.9,24.9,0,0,1,8.95,1.59,30.6,30.6,0,0,0,9.75,1.82,36.74,36.74,0,0,0,15.18-3.23v23.13Z" fill="#231f20"/></g></svg>