<?xml version="1.0" encoding="UTF-8"?><!DOCTYPE svg PUBLIC "-//W3C//DTD SVG 1.0//EN" "http://www.w3.org/TR/2001/REC-SVG-20010904/DTD/svg10.dtd" []><svg xmlns="http://www.w3.org/2000/svg" xmlns:xlink="http://www.w3.org/1999/xlink" height="255.4" preserveAspectRatio="xMidYMid meet" version="1.0" viewBox="-0.8 -0.8 92.7 255.4" width="92.7" zoomAndPan="magnify"><g data-name="4" id="change1_1"><path d="M90.77,48.286l-11.7-3.655a15.681,15.681,0,0,0,10.9-14.76,15.664,15.664,0,0,0-8.813-13.928L85.98,1.83c.626-1.831-2.27-2.617-2.892-.8Q80.715,7.97,78.344,14.908a15.45,15.45,0,0,0-17.076,22.9A15.363,15.363,0,0,0,62.4,39.425L51.758,36.1a1.515,1.515,0,0,0-1.9,1.446q-.173,10.569-.346,21.136H28.559q-.832-6-1.668-11.992-1.923-13.831-3.848-27.664c-.264-1.9-3.156-1.093-2.892.8q2.7,19.428,5.4,38.858H7.608a1.388,1.388,0,0,0-.976.365,1.26,1.26,0,0,0-.471,1.533,103.371,103.371,0,0,1,5.772,34.489c-.089,10.759-2.164,21.25-5.165,31.547-2.332,8.005-5.3,15.946-6.415,24.246a33.517,33.517,0,0,0,3.7,21.165c5.3,9.431,14.827,15.471,24.525,19.689l3.174,49.665L7.437,251.8c-1.427.612-.623,2.8.757,2.8H64.168c1.375,0,2.191-2.189.757-2.8l-24.664-10.42q1.945-24.825,3.894-49.651c9.087-3.87,17.931-9.224,23.6-17.51a32.043,32.043,0,0,0,5.425-20.42c-.586-8.264-3.485-16.18-5.947-24.022-3.063-9.759-5.6-19.661-6.255-29.906a93.471,93.471,0,0,1-.057-10.717L85.212,58.615a1.508,1.508,0,0,0,.411-.517l5.809-7.3A1.523,1.523,0,0,0,90.77,48.286ZM63.859,23.449A12.484,12.484,0,1,1,72.4,42.1q2.258-6.606,4.517-13.213a1.5,1.5,0,0,0-2.893-.8l-4.5,13.153a12.37,12.37,0,0,1-5.663-17.792Zm-6.068,70.4A111.753,111.753,0,0,0,62.7,125.189c4.14,14.186,11.933,30.238,4.24,44.6-5.1,9.519-14.915,15.479-24.608,19.483a1.593,1.593,0,0,0-1.1,1.447q-2.024,25.808-4.048,51.614a1.444,1.444,0,0,0,.743,1.295l18.865,7.97H15.47l18.6-7.972a1.452,1.452,0,0,0,.743-1.3l-3.3-51.611a1.586,1.586,0,0,0-1.1-1.447c-8.874-3.739-17.788-9.139-23.012-17.483a30.344,30.344,0,0,1-4.166-19.975c.943-8.034,3.884-15.776,6.163-23.493a123.785,123.785,0,0,0,5.472-30.384A105.02,105.02,0,0,0,9.685,61.681H25.973q2.451,17.616,4.9,35.231c-.44-.122-.884-.233-1.341-.318a24.647,24.647,0,0,0-10.114.293,1.524,1.524,0,0,0-.463.195l-.046.028a1.069,1.069,0,0,0-.108.079,1.268,1.268,0,0,0-.484,1.145,88.272,88.272,0,0,1-1.665,25.112,65.762,65.762,0,0,1-2.66,8.847c-1.042,2.734-2.389,5.336-3.442,8.066a41,41,0,0,0-2.294,19.847,26.322,26.322,0,0,0,12.33,19.051,30.769,30.769,0,0,0,25.882,2.529A27.226,27.226,0,0,0,62.644,167.3c2.89-6.606,2.671-13.7,1.652-20.684-1.007-6.894-4.467-12.924-6.433-19.535a79.142,79.142,0,0,1-3.093-22.371c-.006-2.407.081-4.811.236-7.212.092-1.435-1.641-1.794-2.561-1.061C48.161,99.856,43,102.124,37.7,99.744c-1.237-.556-2.439-1.146-3.662-1.679L28.977,61.681H63.145A101.991,101.991,0,0,0,57.791,93.852ZM40.566,145q-3.021-21.72-6.043-43.441a28.448,28.448,0,0,0,3.935,1.677c4.756,1.478,9.4-.132,13.394-2.711a89.889,89.889,0,0,0,1.607,21.312,70.061,70.061,0,0,0,2.4,8.835c.983,2.849,2.258,5.576,3.335,8.388a43.215,43.215,0,0,1,2.635,19.9,23.724,23.724,0,0,1-12.271,18.207,27.817,27.817,0,0,1-23.46,1.465,23.228,23.228,0,0,1-14.311-15.913,36.314,36.314,0,0,1,.652-18.612,83.33,83.33,0,0,1,3.591-8.9,64.82,64.82,0,0,0,2.7-7.752,82.659,82.659,0,0,0,2.814-22.09c0-1.941-.07-3.88-.174-5.817a20.182,20.182,0,0,1,9.289.405c.224.065.442.145.661.221q1.248,8.979,2.5,17.957l3.848,27.664C37.938,147.7,40.829,146.886,40.566,145ZM61.345,83.839a101.927,101.927,0,0,1,5.323-23.26,1.511,1.511,0,0,0-1.446-1.9H52.513l.159-9.7,29.112,9.151ZM83.784,55.621,52.723,45.858q.053-3.141.1-6.283L87.845,50.514ZM70.876,60.075a1.969,1.969,0,1,1,1.969,1.97A1.969,1.969,0,0,1,70.876,60.075Zm-3.727,7.036a1.97,1.97,0,1,1-1.97,1.969A1.97,1.97,0,0,1,67.149,67.111ZM56.668,55.621a1.97,1.97,0,1,1,1.969,1.97A1.97,1.97,0,0,1,56.668,55.621Z"/></g></svg>