<?xml version="1.0" encoding="UTF-8"?><svg xmlns="http://www.w3.org/2000/svg" xmlns:xlink="http://www.w3.org/1999/xlink" data-name="Layer 2" height="1602.2" preserveAspectRatio="xMidYMid meet" version="1.0" viewBox="-1.2 -3.1 1309.6 1602.2" width="1309.6" zoomAndPan="magnify"><g data-name="Layer 1"><g id="change1_1"><path d="M108.73,505.01c70.45-68.1,179.42-93.24,271.74-60.81,3.38,1.19,5.15,4.89,3.96,8.27-1.1,3.13-4.37,4.88-7.53,4.17-43.29-9.69-89.01-6.25-130.54,8.16-40.35,13.96-77.32,38.59-103.99,71.46-8.01,9.86-22.5,11.37-32.37,3.35-10.78-8.61-11.36-25.22-1.27-34.61h0Z"/><path d="M250.1,283.21c73.72,20.17,137.42,74.2,167.77,144.16,1.29,2.98-.08,6.44-3.06,7.73-2.69,1.16-5.77,.16-7.29-2.23-18.84-29.58-44.33-54.07-73.13-71.96-28.79-17.9-61-29.2-93.2-32.65-12.66-1.35-21.82-12.71-20.46-25.37,1.37-14.13,15.8-23.76,29.37-19.68h0Z"/><path d="M207.73,85.8c126.51,76.7,221.55,203.62,258.25,346.77,.85,3.31-1.15,6.68-4.46,7.53-3.16,.81-6.37-.97-7.39-4-45.32-133.14-144.06-247.3-268.72-310.17-11.33-5.71-15.88-19.53-10.17-30.86,5.95-11.95,21.14-16.26,32.5-9.26h0Z"/><path d="M419.15,130.64c35.49,55.21,52.11,121.5,46.39,185.91-.59,5.46-8.44,5.59-9.15,.09-3.31-30.34-11.75-59.59-24.32-86.33-12.57-26.74-29.29-51.01-49.11-71.42-8.89-9.15-8.67-23.77,.48-32.65,10.31-10.27,28.2-8.02,35.72,4.4h0Z"/><path d="M443.97,731.25c20.79-56.48,29.65-116.27,24.71-167.62-.49-4.32-5.35-2-5.67,2.75-1.39,26.04-5.99,52.76-13.19,78.7-7.2,25.93-17.04,51.1-28.87,74.05-5.31,10.29-4.86,22.28,1,26.78,6.61,5.29,17.64-2.09,22.03-14.65h0Z"/><path d="M228.09,683.02c31.89-57.36,82.46-103.33,141.93-128.72,5.09-2.06,8.92,4.8,4.41,8.02-25.17,17.25-46.96,38.51-64.6,62.23-17.63,23.71-31.12,49.91-39.74,77.03-3.86,12.15-16.85,18.87-29,15.01-13.93-4.24-20.39-21.07-13-33.56h0Z"/><path d="M616.28,33.7c-64.99,123.36-105.75,260.89-118.24,402.16-.24,2.78-2.69,4.83-5.47,4.58-2.63-.23-4.61-2.46-4.6-5.05,.62-143.18,30-287.35,86.82-421.38,4.95-11.69,18.44-17.14,30.13-12.19,12.34,5.16,17.64,20.07,11.36,31.87h0Z"/><path d="M662.8,249.21c-50.07,36.61-93.68,84.2-126.62,139.53-1.52,2.56-4.83,3.4-7.39,1.88-2.28-1.35-3.19-4.12-2.29-6.52,23-61.74,58.99-119.86,105.96-169.37,8.76-9.24,23.36-9.63,32.6-.87,10.43,9.68,9.29,27.07-2.25,35.35h0Z"/><path d="M616.93,733.15c-14.47-60.32-41.57-118.9-79.92-170.63-1.77-2.39-1.27-5.77,1.12-7.54,2.13-1.58,5.03-1.35,6.9,.4,48.09,45.03,87.84,100.64,115.41,163.07,5.15,11.65-.12,25.27-11.77,30.42-12.96,5.89-28.56-1.87-31.75-15.71h0Z"/><path d="M886.7,272.23c-132.21,35.73-257.9,100.34-365.42,188.95-2.73,2.25-6.76,1.86-9.01-.86-2.14-2.59-1.87-6.38,.49-8.68,101.54-98.06,225-174.96,360.18-223.21,11.96-4.29,25.13,1.94,29.4,13.9,4.54,12.53-2.77,26.48-15.65,29.91h0Z"/><path d="M754.83,470.02c-44.23-23.09-97.42-29.94-147.04-19.28-3.84,.82-7.62-1.63-8.45-5.47-.72-3.37,1.08-6.7,4.13-8.02,52.27-22.55,112.49-26.08,168.01-10.02,12.47,3.34,19.82,16.33,16.21,28.74-3.85,13.89-20.19,20.83-32.87,14.05h0Z"/><path d="M84.79,712.99c83.05-122.43,214.66-210.87,359.49-240.22,3.35-.68,6.61,1.49,7.29,4.84,.65,3.19-1.29,6.31-4.38,7.18-135.28,38.47-254.33,131.26-323.48,252.55-6.28,11.02-20.32,14.87-31.34,8.58-11.63-6.56-15.16-21.95-7.59-32.93h0Z"/><path d="M795.46,806.18c-71.79-119.53-168.26-225.69-282.59-309.61-2.25-1.65-2.73-4.81-1.08-7.05,1.56-2.13,4.49-2.66,6.7-1.32,122.11,74.77,230.15,174.63,315.3,292.71,7.42,10.29,5.1,24.66-5.2,32.08-10.81,7.88-26.31,4.68-33.14-6.81h0Z"/><path d="M506.61,931.88c21.5-137.76,15.48-281.08-18.49-418.77-.67-2.71,.98-5.44,3.69-6.11,2.56-.63,5.15,.83,5.99,3.28,45.82,135.65,64.75,281.56,54.44,426.77-.9,12.66-11.89,22.19-24.55,21.3-13.34-.88-23.19-13.27-21.08-26.47h0Z"/><path d="M311.85,897.57c23.89-134.85,77.14-265.76,155.88-380.7,2-2.92,1.26-6.9-1.66-8.9-2.77-1.9-6.52-1.3-8.6,1.26-88.69,109.82-154.37,239.59-190.48,378.51-3.22,12.29,4.15,24.86,16.45,28.06,12.88,3.41,26.13-5.1,28.4-18.23h0Z"/><path d="M20.32,411.86c95.01-23.27,195.92-26.22,293.73-7.9,2.48,.47,4.87-1.17,5.34-3.65,.44-2.36-1.03-4.64-3.3-5.26-97.34-26.3-201.08-31.8-302.28-15.34-8.96,1.44-15.05,9.88-13.59,18.84,1.48,9.4,10.87,15.61,20.1,13.31h0Z"/><path d="M825.9,649.36c-67.23-71.06-150.42-128.23-242.55-165.86-2.34-.95-3.46-3.62-2.51-5.96,.91-2.22,3.38-3.34,5.63-2.63,96.05,30.67,186.22,82.27,262.33,150.96,6.75,6.07,7.29,16.46,1.21,23.2-6.35,7.1-17.59,7.22-24.11,.28h0Z"/><path d="M916.27,694.98c51.13-29.25,115.29-34.59,169.98-13.07,2.33,.92,3.47,3.55,2.55,5.88-.83,2.1-3.05,3.24-5.19,2.76-26.4-5.82-53.64-5.25-79.07,.73-25.44,5.97-49.14,17.39-68.55,33.08-7.63,6.17-18.81,4.99-24.98-2.64-6.97-8.44-4.36-21.56,5.25-26.74h0Z"/><path d="M965.4,584.51c49.44,10.69,94.66,37.7,126.7,75.89,2.66,3.3-1.55,7.65-4.93,5.05-18.36-14.71-38.91-26.02-60.35-33.72-21.43-7.7-43.78-11.78-65.7-12.08-9.83-.13-17.69-8.21-17.56-18.03,.01-11.22,10.97-19.76,21.85-17.1h0Z"/><path d="M1204.56,808.67c-19.5-42.09-47.31-79.47-78.02-104.73-2.62-2.09-4.01,1.83-1.59,4.59,13.45,14.93,25.53,31.99,35.76,50.04,10.23,18.05,18.61,37.11,24.69,56.06,2.72,8.49,9.51,14.78,15.16,14.03,6.48-.73,8.47-10.76,4-20h0Z"/><path d="M1045.9,848.69c.24-50.59,17.33-100.41,48.07-139.64,2.68-3.28,7.8-.07,5.96,3.78-10.6,21-17.42,43.45-20.53,66.01-3.11,22.56-2.49,45.27,1.76,66.78,1.9,9.64-4.37,19-14.02,20.91-10.98,2.31-21.6-6.66-21.24-17.84h0Z"/><path d="M1106.48,505.79c-7.28,47.25-5.05,96.95,7.21,145.04,.57,2.22-.78,4.49-3,5.06-1.98,.5-3.99-.5-4.81-2.3-21.17-46.16-33.29-97.43-34.74-150.01-.27-9.81,7.46-17.99,17.27-18.27,10.96-.42,19.83,9.67,18.06,20.48h0Z"/><path d="M1278.96,738.47c-40.79-24.94-87.51-42.04-136.61-49.28-2.27-.33-3.84-2.45-3.51-4.72,.3-2.02,2-3.48,3.97-3.55,50.75-1.73,102.73,6.85,151.81,25.79,9.16,3.53,13.72,13.82,10.19,22.98-3.84,10.28-16.57,14.57-25.86,8.77h0Z"/><path d="M1228.84,590.72c-36.67,11.56-69.37,36.86-90.56,69.74-1.64,2.54-5.04,3.28-7.58,1.63-2.23-1.44-3.07-4.24-2.13-6.62,16.15-40.8,47-75.58,85.99-97.13,8.61-4.99,19.7-1.93,24.5,6.8,5.49,9.66,.38,22.36-10.23,25.59h0Z"/><path d="M177.28,1166.62c51.13-29.25,115.29-34.59,169.98-13.07,2.33,.92,3.47,3.55,2.55,5.88-.83,2.1-3.05,3.24-5.19,2.76-26.4-5.82-53.64-5.25-79.07,.73-25.44,5.97-49.14,17.39-68.55,33.08-7.63,6.17-18.81,4.99-24.98-2.64-6.97-8.44-4.36-21.56,5.25-26.74h0Z"/><path d="M226.4,1056.16c49.44,10.69,94.66,37.7,126.7,75.89,2.66,3.3-1.55,7.65-4.93,5.05-18.36-14.71-38.91-26.02-60.35-33.72-21.43-7.7-43.78-11.78-65.7-12.08-9.83-.13-17.69-8.21-17.56-18.03,.01-11.22,10.97-19.76,21.85-17.1h0Z"/><path d="M465.57,1280.32c-19.5-42.09-47.31-79.47-78.02-104.73-2.62-2.09-4.01,1.83-1.59,4.59,13.45,14.93,25.53,31.99,35.76,50.04,10.23,18.05,18.61,37.11,24.69,56.06,2.72,8.49,9.51,14.78,15.16,14.03,6.48-.73,8.47-10.76,4-20h0Z"/><path d="M306.9,1320.34c.24-50.59,17.33-100.41,48.07-139.64,2.68-3.28,7.8-.07,5.96,3.78-10.6,21-17.42,43.45-20.53,66.01-3.11,22.56-2.49,45.27,1.76,66.78,1.9,9.64-4.37,19-14.02,20.91-10.98,2.31-21.6-6.66-21.24-17.84h0Z"/><path d="M367.48,977.43c-7.28,47.25-5.05,96.95,7.21,145.04,.57,2.22-.78,4.49-3,5.06-1.98,.5-3.99-.5-4.81-2.3-21.17-46.16-33.29-97.43-34.74-150.01-.27-9.81,7.46-17.99,17.27-18.27,10.96-.42,19.83,9.67,18.06,20.48h0Z"/><path d="M539.96,1210.11c-40.79-24.94-87.51-42.04-136.61-49.28-2.27-.33-3.84-2.45-3.51-4.72,.3-2.02,2-3.48,3.97-3.55,50.75-1.73,102.73,6.85,151.81,25.79,9.16,3.53,13.72,13.82,10.19,22.98-3.84,10.28-16.57,14.57-25.86,8.77h0Z"/><path d="M489.84,1062.36c-36.67,11.56-69.37,36.86-90.56,69.74-1.64,2.54-5.04,3.28-7.58,1.63-2.23-1.44-3.07-4.24-2.13-6.62,16.15-40.8,47-75.58,85.99-97.13,8.61-4.99,19.7-1.93,24.5,6.8,5.49,9.66,.38,22.36-10.23,25.59h0Z"/><path d="M674.44,828.98c2.7-.67,5.57,0,7.02,2.38,65.78,107.55,151.08,767.74,151.08,767.74-57.66-415.41-158.59-756.15-158.59-756.15,0,0-4.22-12.81,.49-13.97Z"/><path d="M984.28,926.51c-1.41-.35-2.91,0-3.67,1.24-34.37,56.2-78.95,401.19-78.95,401.19,30.13-217.08,82.87-395.13,82.87-395.13,0,0,2.2-6.69-.26-7.3Z"/><path d="M502.09,1238.5c1.16-.88,2.68-1.14,3.86-.3,53.7,38.16,230.33,337.83,230.33,337.83-113.05-187.75-231.55-330.72-231.55-330.72,0,0-4.66-5.29-2.64-6.81Z"/></g></g></svg>