<?xml version="1.0" encoding="UTF-8"?><!DOCTYPE svg PUBLIC "-//W3C//DTD SVG 1.0//EN" "http://www.w3.org/TR/2001/REC-SVG-20010904/DTD/svg10.dtd" []><svg xmlns="http://www.w3.org/2000/svg" xmlns:xlink="http://www.w3.org/1999/xlink" height="948" preserveAspectRatio="xMidYMid meet" version="1.0" viewBox="-25.0 -6.7 941.1 948.4" width="941" zoomAndPan="magnify"><g id="change1_1"><path d="M326.2,772.4c-34.1-4.4-65.5-5.9-95.6-12.9C110.9,731.7,20.5,629.8,3.1,507.8c-22.7-158.5,82.8-317.8,255.5-343.2 c113.9-16.8,209.3,22.1,282.8,111.2c10.2,12.4,19.8,17.6,36.2,17.4c155.3-1.6,284.1,104.7,308.9,258.5 c29.6,183.5-102.2,336.5-266.5,354.5C500,919.4,404,874.9,331.4,779C328.9,775.7,326.3,772.5,326.2,772.4z M409,751.3 C471.3,825.3,595.1,854.5,696,798c99.7-55.9,145.6-175.7,108.1-283.5C772,422,667.5,345.7,589,358.6c27.8,79,25.8,157.1-9,233.4 C545.1,668.3,486.3,719.8,409,751.3z M474.4,311.5c-44.2-62.7-158.1-114.1-269.5-58.8C103.5,303,56.1,419,92.5,526 c28.1,82.5,126.3,158.2,189.5,146.1C247.6,496.6,346,361.6,474.4,311.5z M535.1,295.7c-75.9-112.1-246.2-160.4-382.6-75.9 C16.2,304.3-25,481.4,59.6,618c83.3,134.4,261.8,176,396.7,91.5c144.5-90.4,159.3-263.9,111.2-354.1c-12.8,1.9-26.2,4-41.7,6.3 c23,64.3,23.9,126.2-2.7,186.9c-27,61.5-72.4,104.5-135.2,128.6c-106,40.7-229.8-0.9-289.8-101.5c-55.7-93.4-42.9-223.9,49-303.4 c43.8-37.9,95-57.9,152.5-58.6c79.1-0.9,143.8,31.7,193.9,92C508,302.2,520.7,299.1,535.1,295.7z M346,768.6 c54,90,211,173.1,369.6,92.4c141.6-72,199.1-244,130.3-386.9C777.1,331.4,606.2,269,462.2,334.9 c-152.9,69.9-195.4,235.9-159.4,341.1c12.6,1,25.4,1.3,38.3-4.4c-1.9-7.8-3.5-14.4-5-21.1c-37.2-156.4,78.4-307.9,239.5-310.7 c162.8-2.8,273.3,138.9,255.3,279.8c-12.6,98.8-65.4,169.5-157.5,205.9c-92.9,36.7-179.9,20.2-257.5-43.3 c-17.2-26.5-41-25.6-66.8-15.9C348.4,766.5,348,767,346,768.6z M509.3,368.3c-144.2,41.2-194.3,209-148.1,299.8 C490.5,637.3,562.8,489.7,509.3,368.3z M575.4,264.1c-48.5-59.7-71.5-123.4-58.7-197.6c3.3-18.9,11.2-35.7,25-49.4 c23.9-23.8,55.4-22.9,75.8,3.8c11.2,14.7,19.1,32,29.3,49.5c4-2.3,9.2-5.2,14.4-8.2c17.1-9.9,35.2-16.4,55.3-15.6 c32.8,1.3,53.9,24.5,51.9,57.4c-1,16.5-6.6,31.8-17.6,43.7c-15.5,16.7-30.9,34.8-49.8,46.6C661,219.2,618.8,240.3,575.4,264.1z M577,244.8c37.5-20.2,73.7-37.9,107.9-58.8c18-11,34.1-26.3,48.3-42.1c8.9-9.8,15-23.5,18.4-36.5c6.2-23.3-9.6-42.7-33.7-44.7 c-15-1.2-29.2,2.4-42,9.7c-8.9,5.1-16.9,12-25.2,18.2c-8.5,6.3-13.1,5.5-17.8-4c-2.7-5.6-4-11.9-6.8-17.4 c-6.2-12.4-11.6-25.4-19.7-36.4C590.7,11,568.5,10.9,550.4,31c-12.1,13.4-17.9,29.9-20,47.3C523.1,139.1,541.1,193.1,577,244.8z"/></g></svg>