<?xml version="1.0" encoding="UTF-8"?><svg xmlns="http://www.w3.org/2000/svg" xmlns:xlink="http://www.w3.org/1999/xlink" height="100.6" preserveAspectRatio="xMidYMid meet" version="1.0" viewBox="-0.2 -1.6 126.3 100.6" width="126.3" zoomAndPan="magnify"><g id="change1_1"><path d="M9.508,84.943c-0.439-0.332-1.067-0.247-1.401,0.193c-0.333,0.439-0.248,1.066,0.191,1.4 c0.122,0.093,3.037,2.288,7.437,3.786s8.048,1.539,8.201,1.54c0.002,0,0.004,0,0.006,0c0.549,0,0.996-0.443,1-0.993 c0.004-0.552-0.44-1.003-0.992-1.007c-0.035,0-3.494-0.044-7.57-1.433C12.303,87.04,9.535,84.964,9.508,84.943z" fill="inherit"/><path d="M54.647,27.848c0-0.106-0.016-0.214-0.052-0.318c-0.003-0.009-0.01-0.016-0.014-0.026 c-0.012-0.031-0.031-0.058-0.046-0.088c-0.038-0.078-0.082-0.15-0.138-0.214c-0.026-0.03-0.054-0.055-0.083-0.081 c-0.065-0.059-0.135-0.107-0.213-0.147c-0.022-0.011-0.036-0.031-0.059-0.04c-0.012-0.005-0.024-0.003-0.036-0.008 c-0.107-0.041-0.22-0.068-0.339-0.07c-0.005,0-0.011-0.003-0.016-0.003c0,0-0.001,0-0.001,0 c-19.913-0.003-31.153,3.123-31.623,3.257c-0.006,0.002-0.011,0.006-0.017,0.008c-0.038,0.012-0.07,0.034-0.106,0.05 c-0.074,0.033-0.145,0.068-0.208,0.117c-0.036,0.027-0.064,0.059-0.096,0.091c-0.053,0.054-0.1,0.111-0.14,0.175 c-0.023,0.037-0.044,0.074-0.062,0.115c-0.035,0.079-0.057,0.161-0.071,0.248c-0.004,0.027-0.02,0.049-0.022,0.077 c-0.012,0.148-1.055,14.845,11.971,16.854c0.514,0.079,1.021,0.117,1.523,0.117c11.199,0,19.409-18.876,19.768-19.715 c0.006-0.015,0.004-0.031,0.009-0.046c0.036-0.095,0.056-0.194,0.062-0.297C54.64,27.886,54.647,27.867,54.647,27.848z M49.912,28.886c-4.203,2.049-12.447,4.781-23.482,2.281C30.829,30.313,38.869,29.102,49.912,28.886z M34.796,45.961 c-0.401,0-0.807-0.03-1.214-0.093c-9.224-1.422-10.254-10.153-10.309-13.46c4.404,1.286,8.423,1.79,11.998,1.79 c7.366,0,12.85-2.101,15.989-3.722C48.51,35.72,42.193,45.962,34.796,45.961z" fill="inherit"/><path d="M125.91,87.088c-0.245-0.851-0.941-1.47-1.816-1.617l-13.644-2.29l-9.998-30.999c16.455-6.788,5.938-44.253,5.474-45.874 c-0.014-0.047-0.046-0.082-0.065-0.126c-0.016-0.062-0.015-0.126-0.035-0.187c-0.737-2.286-3.677-3.513-8.5-3.546 c-4.417-0.026-9.884,0.944-15.464,2.744c-5.58,1.799-10.605,4.217-14.152,6.809c-1.563,1.142-2.75,2.261-3.585,3.341 c-1.601-4.459-10.029-9.415-18.649-12.35c-10.353-3.526-22.273-4.58-23.974,0.414c-0.026,0.076-0.04,0.153-0.061,0.23 c-0.012,0.029-0.035,0.051-0.044,0.082C20.906,5.33,9.781,42.62,26.124,49.674l-10.5,30.832L1.945,82.574 c-0.878,0.133-1.584,0.741-1.843,1.587c-0.26,0.852-0.013,1.757,0.646,2.362c1.804,1.659,5.678,4.224,13.89,7.021 c6.951,2.367,11.338,2.969,14.002,2.969c0.483,0,0.91-0.02,1.285-0.053c0.891-0.078,1.64-0.644,1.953-1.477 c0.312-0.829,0.124-1.741-0.491-2.382l-9.574-9.987l10.5-30.832c14.922,3.796,27.364-22.857,30.843-31.155 c1.578,4.238,13.164,33.886,28.348,33.884c0.896,0,1.805-0.104,2.725-0.321l9.998,30.999l-9.735,9.83 c-0.625,0.63-0.828,1.54-0.53,2.373c0.3,0.839,1.039,1.418,1.93,1.51c0.45,0.047,0.974,0.076,1.583,0.076 c2.689,0,7.017-0.572,13.75-2.744c8.254-2.662,12.17-5.163,14.002-6.793C125.895,88.845,126.157,87.944,125.91,87.088z M68.889,13.616c3.379-2.469,8.205-4.784,13.587-6.52c5.301-1.71,10.492-2.647,14.646-2.647c0.063,0,0.127,0,0.19,0 c3.711,0.026,6.183,0.833,6.611,2.161c0.428,1.327-1.106,3.426-4.103,5.615c-3.379,2.469-8.205,4.784-13.587,6.52 c-5.382,1.736-10.631,2.691-14.836,2.647c-3.711-0.026-6.183-0.833-6.611-2.161C64.358,17.905,65.892,15.806,68.889,13.616z M44.831,4.886c11.139,3.793,18.421,9.687,17.49,12.421c-0.449,1.319-2.917,2.057-6.645,2.052 c-4.185-0.039-9.438-1.064-14.791-2.888C29.745,12.678,22.464,6.785,23.395,4.05C24.326,1.317,33.691,1.092,44.831,4.886z M31.999,49.604c-0.523-0.177-1.091,0.102-1.269,0.625L19.724,82.545c-0.12,0.354-0.034,0.745,0.225,1.014l9.994,10.426 c0.103,0.107,0.091,0.219,0.063,0.294c-0.024,0.064-0.09,0.175-0.255,0.189c-2.25,0.194-6.587-0.133-14.469-2.817 s-11.519-5.07-13.181-6.6c-0.122-0.112-0.106-0.24-0.086-0.306c0.023-0.076,0.082-0.172,0.229-0.194l14.28-2.159 c0.369-0.056,0.677-0.313,0.797-0.667l11.006-32.317c0.178-0.522-0.102-1.091-0.625-1.269c-13.098-4.461-7.651-31.139-5.282-40.547 c2.744,4.01,10.206,8.18,17.819,10.772c5.55,1.89,11.025,2.953,15.417,2.994c0.089,0,0.176,0.001,0.264,0.001 c2.029,0,3.695-0.235,5.018-0.67C57.076,29.586,45.098,54.065,31.999,49.604z M123.897,87.946 c-1.688,1.502-5.364,3.829-13.287,6.384c-7.926,2.556-12.268,2.814-14.512,2.582c-0.166-0.017-0.229-0.129-0.253-0.194 c-0.027-0.075-0.037-0.187,0.067-0.292l10.163-10.262c0.263-0.265,0.356-0.655,0.241-1.011L95.837,52.661 c-0.082-0.252-0.26-0.462-0.496-0.583c-0.236-0.12-0.51-0.142-0.763-0.062c-13.166,4.253-24.747-20.422-28.466-29.38 c1.372,0.476,3.123,0.741,5.27,0.756c0.067,0,0.134,0,0.202,0c4.358,0,9.768-0.972,15.263-2.744 c5.58-1.799,10.605-4.217,14.152-6.809c1.734-1.267,3-2.504,3.836-3.692c2.216,9.427,7.248,36.223-5.936,40.475 c-0.525,0.169-0.814,0.733-0.645,1.259l10.479,32.492c0.115,0.355,0.418,0.617,0.786,0.679l14.244,2.391 c0.146,0.024,0.204,0.121,0.226,0.198C124.008,87.708,124.021,87.836,123.897,87.946z" fill="inherit"/><path d="M116.491,87.718c-0.027,0.02-2.809,2.044-6.926,3.373c-3.996,1.289-7.384,1.31-7.583,1.31c-0.02,0-0.014,0-0.017,0 c-0.548,0-0.996,0.442-1,0.991c-0.005,0.552,0.438,1.003,0.99,1.009c0.007,0,0.021,0,0.043,0c0.448,0,3.962-0.045,8.182-1.406 c4.423-1.427,7.373-3.574,7.497-3.665c0.445-0.327,0.541-0.953,0.213-1.398C117.563,87.486,116.937,87.39,116.491,87.718z" fill="inherit"/><path d="M105.573,33.58c-0.002-0.028-0.017-0.05-0.021-0.077c-0.013-0.089-0.034-0.173-0.07-0.254 c-0.015-0.034-0.032-0.066-0.051-0.098c-0.046-0.08-0.102-0.15-0.168-0.214c-0.018-0.017-0.034-0.036-0.053-0.052 c-0.088-0.074-0.187-0.134-0.299-0.174c-0.004-0.002-0.008-0.004-0.012-0.006c-0.012-0.004-0.021-0.013-0.033-0.016 c-0.467-0.142-11.659-3.479-31.565-3.771c-0.001,0-0.002,0-0.002,0c-0.001,0-0.003,0.001-0.004,0.001 c-0.104,0.003-0.209,0.025-0.309,0.059c-0.026,0.008-0.052,0.004-0.077,0.015c-0.047,0.019-0.079,0.056-0.122,0.081 c-0.037,0.021-0.07,0.044-0.104,0.069c-0.053,0.042-0.104,0.082-0.147,0.133c-0.046,0.051-0.079,0.109-0.113,0.169 c-0.021,0.038-0.047,0.07-0.062,0.11c-0.003,0.009-0.01,0.015-0.014,0.024c-0.037,0.104-0.055,0.211-0.057,0.317 c0,0.019,0.006,0.038,0.007,0.057c0.004,0.102,0.023,0.201,0.057,0.297c0.005,0.015,0.003,0.031,0.009,0.046 c0.347,0.849,8.323,20.036,19.606,20.035c0.449,0,0.904-0.031,1.363-0.094C106.386,48.441,105.583,33.729,105.573,33.58z M100.445,33.673c-11.035,2.306-19.237-0.549-23.42-2.662C88.051,31.408,96.063,32.747,100.445,33.673z M93.057,48.256 c-7.93,1.1-14.616-10.103-17.424-15.678c3.199,1.719,8.867,3.987,16.556,3.987c3.415,0,7.229-0.456,11.394-1.598 C103.474,38.275,102.301,46.984,93.057,48.256z" fill="inherit"/></g></svg>